<svg xmlns="http://www.w3.org/2000/svg" enable-background="new 0 0 100 91.588" xml:space="preserve" height="32" width="32" version="1.1" y="0px" x="0px" viewBox="0 0 32 32.000001"><path stroke-width=".29999" fill="#010101" d="m15.665 30c-2.908 0-5.816-0.859-8.2852-2.492-3.2109-2.122-5.3843-5.312-6.1214-8.98-0.70526-3.511 0.0489-7.251 2.0691-10.263 1.9538-2.9135 4.8721-4.8746 8.2175-5.5223 3.1934-0.61828 6.5845 0.0912 9.3031 1.9457 2.6168 1.7844 4.3646 4.433 4.9226 7.4569 0.53099 2.8769-0.1347 5.9182-1.8249 8.3428-1.6161 2.3192-3.9938 3.8537-6.697 4.3205-2.561 0.441-5.253-0.18-7.3832-1.707-2.0208-1.448-3.3401-3.557-3.7151-5.939-0.3537-2.247 0.2268-4.589 1.5932-6.425 1.2819-1.7221 3.1231-2.8249 5.1841-3.1054 1.9337-0.26249 3.9269 0.27959 5.4677 1.4892 1.4223 1.1178 2.3063 2.6924 2.4884 4.4339 0.1695 1.6275-0.34139 3.272-1.4019 4.5134-0.95788 1.1211-2.2694 1.7796-3.6935 1.8552-1.3143 0.0684-2.6462-0.43649-3.5687-1.353-0.81358-0.80908-1.2339-1.8654-1.1823-2.9735 0.048-1.0338 0.61228-2.0744 1.4376-2.6507 0.69628-0.48629 1.5171-0.61648 2.3099-0.36689 0.65908 0.2079 1.0251 0.91048 0.81748 1.5693-0.20759 0.65938-0.91108 1.0254-1.569 0.81778-0.0348-0.0111-0.0555-0.018-0.1257 0.0312-0.1896 0.1323-0.35909 0.45959-0.37109 0.71458-0.0186 0.40559 0.1314 0.76978 0.44639 1.0821 0.42329 0.42089 1.0659 0.65848 1.6734 0.62998 0.93838-0.0498 1.5633-0.56128 1.9223-0.98127 0.60808-0.71188 0.91348-1.6941 0.81508-2.6285-0.1101-1.062-0.65908-2.03-1.5444-2.7257-1.0107-0.79378-2.3165-1.1511-3.5843-0.97767-1.3893 0.1887-2.6369 0.94168-3.5135 2.1197-0.96777 1.2999-1.3791 2.9552-1.1295 4.5422 0.26969 1.7139 1.2288 3.2393 2.7005 4.2941 1.59 1.1391 3.5942 1.6041 5.5001 1.2744 2.039-0.35219 3.8396-1.5186 5.0702-3.2849 1.3104-1.88 1.8267-4.2341 1.4166-6.4585-0.435-2.362-1.811-4.4374-3.871-5.8429-2.172-1.481-4.875-2.0477-7.418-1.5563-2.6862 0.5201-5.0354 2.1035-6.6149 4.459-1.6512 2.4623-2.2688 5.5157-1.6938 8.377 0.60418 3.0095 2.3972 5.6324 5.048 7.3858 2.753 1.8207 6.1558 2.4878 9.3358 1.83 5.7073-1.1808 10.083-6.3616 10.403-12.319 0.0372-0.68998 0.62398-1.218 1.317-1.182 0.68998 0.0372 1.2192 0.62668 1.1817 1.317-0.38069 7.0732-5.5937 13.229-12.395 14.635-0.969 0.199-1.953 0.298-2.938 0.298z"/></svg>
